<svg xmlns="http://www.w3.org/2000/svg" data-name="Layer 1" viewBox="0 0 40 40"><path fill="#231f20" d="M18.62,10.88a8.39,8.39,0,0,0-5.77,4.18,1,1,0,1,0,1.75,1,6.39,6.39,0,1,1,10.89,6.68,6.4,6.4,0,0,1-10.93-.57,1,1,0,0,0-1.77.94,8.36,8.36,0,0,0,7.38,4.44,8.85,8.85,0,0,0,1.61-.15,8.4,8.4,0,0,0-3.16-16.49Z"/><circle cx="29.26" cy="10.1" r="1.81" fill="#231f20"/><path fill="#231f20" d="M28.14,2.46H12.25a8.7,8.7,0,0,0-8.69,8.69V27a8.7,8.7,0,0,0,8.69,8.7H28.14A8.7,8.7,0,0,0,36.83,27V11.15A8.7,8.7,0,0,0,28.14,2.46ZM34.83,27a6.7,6.7,0,0,1-6.69,6.7H12.25A6.7,6.7,0,0,1,5.56,27V11.15a6.7,6.7,0,0,1,6.69-6.69H28.14a6.7,6.7,0,0,1,6.69,6.69Z"/><path fill="#231f20" d="M13.63,19a1,1,0,0,0-1.2-.81,1,1,0,1,0,.39,2A1,1,0,0,0,13.63,19Z"/></svg>